<svg width="551" height="70" viewBox="0 0 551 70" fill="none" xmlns="http://www.w3.org/2000/svg">
<path d="M106.723 1.12695L86.9335 35.9148L83.931 42.5343L84.6134 36.619L84.477 1.12695H69.3281V69.5759H69.4646H83.2487L103.174 34.0839L105.904 27.8868L105.358 33.3797L105.494 69.5759H120.643L120.507 1.12695H106.723Z" fill="black"/>
<path d="M30.2976 1.12695H22.9279L0 69.5759H15.2853L29.8882 20.7039L44.4911 69.5759H60.4588L37.5309 1.12695H30.2976Z" fill="black"/>
<path d="M180.146 1.12646H137.156V16.7599V69.5754H152.305V16.7599H180.146V1.12646Z" fill="black"/>
<path d="M222.592 69.5759H238.56L215.632 1.12695H208.263H200.893L177.965 69.4351H193.25L197.071 56.4776H218.635L222.592 69.5759ZM201.166 43.8019L208.126 20.7039L214.95 43.8019H201.166Z" fill="black"/>
<path d="M285.779 68.6919L260.621 51.7055V1.62744H311.072V51.7047L285.779 68.6919Z" fill="#2C39F2" stroke="#2C39F2"/>
<path d="M300.659 39.9997C301.204 39.9997 301.75 39.9997 302.296 39.718V45.3517C300.932 45.7742 299.157 46.1967 297.52 46.1967C294.517 46.1967 292.197 45.07 290.969 42.8165C287.966 45.07 284.554 46.4784 280.051 46.3376C274.455 46.3376 269.542 42.9574 269.679 37.042C269.815 29.4366 276.912 27.1831 282.917 27.1831C285.237 27.1831 287.966 27.6057 290.013 28.0282V26.9015C290.013 23.9438 287.693 21.8312 282.917 21.8312C278.822 21.8312 275.138 22.8171 272.272 23.9438V16.4792C274.728 15.6341 279.368 14.5074 283.872 14.6482C292.879 14.7891 298.611 18.451 298.475 28.3099L298.338 37.8871C298.611 39.5772 299.567 39.9997 300.659 39.9997ZM277.321 36.6195C277.321 39.0138 279.505 40.7039 282.507 40.7039C285.237 40.7039 287.693 39.9997 290.013 38.1688V33.0985C288.512 32.676 286.329 32.2534 284.418 32.2534C280.733 32.2534 277.321 33.3802 277.321 36.6195Z" fill="white"/>
<path d="M347.88 25.6332H346.379C344.605 25.6332 343.103 25.3515 341.739 24.7881C340.374 24.2247 339.146 23.3797 338.19 22.5346C337.235 21.6896 336.553 20.422 336.007 19.0136C335.461 17.6052 335.324 16.1968 335.324 14.6475C335.324 13.0983 335.597 11.549 336.143 10.2814C336.689 9.01386 337.371 7.74628 338.327 6.76039C339.282 5.7745 340.51 5.07029 341.875 4.50693C343.24 3.94356 344.878 3.66188 346.515 3.66188H348.016V0H350.337V3.52104H351.838C353.612 3.52104 355.113 3.80272 356.478 4.36609C357.843 4.92945 359.071 5.7745 360.026 6.61955C360.982 7.4646 361.664 8.73217 362.21 10.1406C362.756 11.549 363.029 12.9574 363.029 14.5067C363.029 16.0559 362.756 17.6052 362.21 18.8728C361.664 20.1403 360.982 21.4079 360.026 22.3938C359.071 23.3797 357.979 24.0839 356.478 24.6473C355.113 25.2106 353.475 25.4923 351.838 25.4923H350.337V29.0133H348.016V25.6332H347.88ZM347.88 23.6614V5.35198H346.379C345.014 5.35198 343.786 5.63366 342.694 6.05618C341.602 6.47871 340.783 7.04207 339.964 7.74628C339.146 8.45049 338.6 9.29554 338.19 10.2814C337.781 11.2673 337.644 12.2532 337.644 13.2391V15.6334C337.644 16.6193 337.781 17.6052 338.19 18.5911C338.6 19.577 339.146 20.422 339.964 21.1262C340.783 21.8304 341.602 22.3938 342.694 22.8163C343.786 23.2388 345.014 23.5205 346.379 23.5205H347.88V23.6614ZM351.701 23.6614C353.066 23.6614 354.158 23.3797 355.25 22.9572C356.341 22.5346 357.297 21.9713 357.979 21.2671C358.662 20.5629 359.344 19.7178 359.753 18.7319C360.163 17.746 360.299 16.7601 360.299 15.7742V13.3799C360.299 12.3941 360.163 11.4082 359.753 10.4223C359.344 9.43638 358.798 8.59133 357.979 7.88712C357.16 7.18292 356.341 6.61955 355.25 6.19703C354.158 5.7745 352.93 5.49282 351.701 5.49282H350.2V23.8022H351.701V23.6614Z" fill="black"/>
<path d="M370.531 28.0279V0.986328H381.04C383.36 0.986328 385.134 1.69054 386.362 2.95811C387.591 4.36652 388.137 6.19746 388.137 8.45093C388.137 10.8452 387.591 12.6762 386.362 13.9437C385.134 15.3522 383.36 15.9155 381.04 15.9155H372.851V27.7462H370.531V28.0279ZM372.851 14.0846H381.04C382.541 14.0846 383.769 13.6621 384.588 12.817C385.407 11.972 385.817 10.8452 385.817 9.57766V7.60588C385.817 6.3383 385.407 5.21157 384.588 4.36652C383.769 3.52147 382.678 3.09895 381.04 3.09895H372.851V14.0846Z" fill="black"/>
<path d="M404.926 28.4511C401.514 28.4511 398.921 27.3243 396.874 24.93C394.963 22.5357 394.008 19.1555 394.008 14.5078C394.008 9.85999 394.963 6.47979 396.874 4.08549C398.784 1.69118 401.514 0.564453 404.926 0.564453C408.338 0.564453 410.931 1.69118 412.841 4.08549C414.752 6.47979 415.707 9.85999 415.707 14.5078C415.707 19.0147 414.752 22.5357 412.841 24.93C410.931 27.3243 408.338 28.4511 404.926 28.4511ZM404.926 26.4793C406.154 26.4793 407.382 26.1976 408.338 25.7751C409.43 25.3526 410.248 24.6483 410.931 23.8033C411.613 22.9582 412.296 21.8315 412.705 20.5639C413.114 19.2964 413.251 17.888 413.251 16.1979V12.8177C413.251 11.2684 413.114 9.71915 412.705 8.45158C412.296 7.184 411.75 6.05727 410.931 5.21222C410.248 4.36717 409.293 3.66297 408.338 3.24044C407.382 2.81792 406.154 2.53623 404.926 2.53623C403.698 2.53623 402.469 2.81792 401.514 3.24044C400.422 3.66297 399.603 4.36717 398.784 5.21222C397.966 6.05727 397.42 7.184 397.01 8.45158C396.601 9.71915 396.464 11.1276 396.464 12.8177V16.1979C396.464 17.7471 396.601 19.2964 397.01 20.5639C397.42 21.8315 397.966 22.9582 398.784 23.8033C399.467 24.6483 400.422 25.3526 401.514 25.7751C402.469 26.1976 403.698 26.4793 404.926 26.4793Z" fill="black"/>
<path d="M440.685 15.3522H426.082V28.0279H423.762V0.986328H426.082V13.2395H440.685V0.986328H443.005V28.0279H440.685V15.3522Z" fill="black"/>
<path d="M460.746 3.09895V28.0279H458.426V3.09895H449.555V0.986328H469.617V3.09895H460.746Z" fill="black"/>
<path d="M476.027 28.0279V0.986328H491.586V3.09895H478.347V13.2395H490.903V15.3522H478.347V25.9153H491.586V28.0279H476.027Z" fill="black"/>
<path d="M516.704 15.3522H502.101V28.0279H499.781V0.986328H502.101V13.2395H516.704V0.986328H519.024V28.0279H516.704V15.3522Z" fill="black"/>
<path d="M525.027 25.9153H527.757C528.985 24.2252 529.804 21.9717 530.486 19.1549C531.169 16.338 531.442 12.817 531.442 8.59177V0.986328H546.454V25.9153H550.002V33.8024H547.819V28.0279H527.211V33.8024H525.027V25.9153ZM544.134 25.9153V3.09895H533.625V8.87345C533.625 13.0987 533.352 16.6197 532.806 19.4366C532.261 22.2534 531.442 24.366 530.486 25.9153V26.0561H544.134V25.9153Z" fill="black"/>
<path d="M355.661 69.5767L352.795 61.1262H341.467L338.601 69.5767H336.281L345.698 42.5352H348.564L357.981 69.5767H355.661ZM347.063 44.7886H346.926L342.013 59.1544H352.112L347.063 44.7886Z" fill="black"/>
<path d="M365.214 67.4641H368.899L370.4 63.6614L360.438 42.5352H362.894L369.581 56.7601L371.356 60.7037H371.492L372.993 56.6193L378.589 42.5352H380.909L371.219 67.1824C370.81 68.1683 370.4 68.7317 369.854 69.1542C369.308 69.4359 368.626 69.5767 367.671 69.5767H365.214V67.4641Z" fill="black"/>
<path d="M396.058 44.6478V69.5767H393.738V44.6478H384.867V42.5352H404.929V44.6478H396.058Z" fill="black"/>
<path d="M419.806 70.0001C416.53 70.0001 413.937 68.8734 412.163 66.4791C410.389 64.0848 409.434 60.7046 409.434 56.0568C409.434 51.5499 410.389 48.0288 412.163 45.6345C413.937 43.2402 416.53 41.9727 419.806 41.9727C421.989 41.9727 423.764 42.536 425.265 43.5219C426.766 44.5078 427.858 45.9162 428.677 47.7472L426.766 48.8739C426.22 47.4655 425.265 46.1979 424.173 45.3529C422.945 44.5078 421.58 44.0853 419.942 44.0853C417.486 44.0853 415.575 44.9303 414.074 46.7613C412.709 48.5922 412.027 51.1274 412.027 54.5075V57.7469C412.027 61.1271 412.709 63.6622 414.074 65.3523C415.439 67.0424 417.349 68.0283 419.942 68.0283C421.716 68.0283 423.218 67.6058 424.446 66.6199C425.674 65.7749 426.493 64.5073 427.175 62.958L429.086 64.0848C428.267 65.9157 427.175 67.465 425.674 68.4509C423.764 69.4367 421.989 70.0001 419.806 70.0001Z" fill="black"/>
<path d="M445.188 69.9999C441.776 69.9999 439.183 68.8732 437.135 66.4789C435.225 64.0846 434.27 60.7044 434.27 56.0566C434.27 51.4088 435.225 48.0286 437.135 45.6343C439.046 43.24 441.776 42.1133 445.188 42.1133C448.599 42.1133 451.193 43.24 453.103 45.6343C455.014 48.0286 455.969 51.4088 455.969 56.0566C455.969 60.5635 455.014 64.0846 453.103 66.4789C451.193 68.8732 448.599 69.9999 445.188 69.9999ZM445.188 68.0281C446.416 68.0281 447.644 67.7464 448.599 67.3239C449.691 66.9014 450.51 66.1972 451.193 65.3521C451.875 64.5071 452.557 63.3803 452.967 62.1128C453.376 60.8452 453.513 59.4368 453.513 57.7467V54.3665C453.513 52.8172 453.376 51.268 452.967 50.0004C452.557 48.7328 452.011 47.6061 451.193 46.7611C450.51 45.916 449.555 45.2118 448.599 44.7893C447.644 44.3667 446.416 44.0851 445.188 44.0851C443.959 44.0851 442.731 44.3667 441.776 44.7893C440.684 45.2118 439.865 45.916 439.046 46.7611C438.227 47.6061 437.681 48.7328 437.272 50.0004C436.863 51.268 436.726 52.6764 436.726 54.3665V57.7467C436.726 59.2959 436.863 60.8452 437.272 62.1128C437.681 63.3803 438.227 64.5071 439.046 65.3521C439.729 66.1972 440.684 66.9014 441.776 67.3239C442.731 67.7464 443.959 68.0281 445.188 68.0281Z" fill="black"/>
<path d="M464.16 69.5767V42.5352H474.669C476.989 42.5352 478.763 43.2394 479.991 44.5069C481.22 45.9154 481.766 47.7463 481.766 49.9998C481.766 52.3941 481.22 54.225 479.991 55.4926C478.763 56.901 476.989 57.4643 474.669 57.4643H466.48V69.295H464.16V69.5767ZM466.48 55.6334H474.669C476.17 55.6334 477.398 55.2109 478.217 54.3658C479.036 53.5208 479.445 52.3941 479.445 51.1265V49.2955C479.445 48.028 479.036 46.9012 478.217 46.0562C477.398 45.2111 476.306 44.7886 474.669 44.7886H466.48V55.6334Z" fill="black"/>
<path d="M498.005 70.0001C494.73 70.0001 492.137 68.8734 490.362 66.4791C488.588 64.0848 487.633 60.7046 487.633 56.0568C487.633 51.5499 488.588 48.0288 490.362 45.6345C492.137 43.2402 494.73 41.9727 498.005 41.9727C500.189 41.9727 501.963 42.536 503.464 43.5219C504.965 44.5078 506.057 45.9162 506.876 47.7472L504.965 48.8739C504.419 47.4655 503.464 46.1979 502.372 45.3529C501.144 44.5078 499.779 44.0853 498.141 44.0853C495.685 44.0853 493.774 44.9303 492.273 46.7613C490.908 48.5922 490.226 51.1274 490.226 54.5075V57.7469C490.226 61.1271 490.908 63.6622 492.273 65.3523C493.638 67.0424 495.548 68.0283 498.141 68.0283C499.916 68.0283 501.417 67.6058 502.645 66.6199C503.873 65.7749 504.692 64.5073 505.375 62.958L507.285 64.0848C506.467 65.9157 505.375 67.465 503.873 68.4509C501.963 69.4367 500.052 70.0001 498.005 70.0001Z" fill="black"/>
</svg>
