<svg width="72" height="85" viewBox="0 0 72 85" fill="none" xmlns="http://www.w3.org/2000/svg">
<path d="M31.2452 20.9671L26.477 26.0416L13.6642 25.8306L16.9963 23.0251L23.2884 22.7664L24.4309 22.7195L23.6208 21.9126L19.2088 17.5182L25.2005 9.27181L56.0102 6.46332L49.0686 15.6556L28.4559 17.1477L27.3312 17.2291L28.1467 18.008L31.2452 20.9671Z" fill="white" stroke="black"/>
<path d="M55.9524 4.17299L10.3906 68.4028L11.9005 69.4483L57.4623 5.21842L55.9524 4.17299Z" fill="black"/>
<path d="M60.1258 0.274902L55.3242 3.77582L56.6399 4.77202H56.6495L57.9651 5.76821L60.1258 0.274902Z" fill="black"/>
<path d="M24.331 70.0962L20.6914 77.2973L28.6044 84.0809L38.2651 83.8722" fill="white"/>
<path d="M28.2626 85L19.543 77.5238L23.4995 69.687L25.1512 70.5029L21.8285 77.0684L28.9348 83.1594L38.2402 82.9602L38.2786 84.7818L28.2626 85Z" fill="black"/>
<path d="M52.4492 46.174L56.4249 42.7773L57.6541 47.3979" fill="white"/>
<path d="M56.7723 47.6367L55.908 44.4204L53.0559 46.8587L51.8555 45.483L56.9356 41.1377L58.5489 47.1718L56.7723 47.6367Z" fill="black"/>
<path d="M47.5352 44.8446L51.5013 41.4575L52.7401 46.078" fill="white"/>
<path d="M51.8465 46.3068L50.9918 43.1L48.1301 45.5383L46.9297 44.1531L52.0194 39.8174L53.6231 45.8419L51.8465 46.3068Z" fill="black"/>
<path d="M42.418 43.3876L45.1645 38.5015L47.6229 44.621" fill="white"/>
<path d="M46.778 44.9526L45.0302 40.6167L43.2344 43.8235L41.6211 42.9412L45.3087 36.3853L48.4874 44.2789L46.778 44.9526Z" fill="black"/>
<path d="M41.7032 59.7421C42.1546 50.7478 46.6969 50.6435 46.5912 51.2033L53.0446 51.4215C55.9543 51.2033 57.5005 50.3494 57.6541 47.3987L47.5516 45.0078L43.7487 45.9566L43.0092 41.1274L46.5528 35.8238L49.7507 38.4993L53.3519 33.025L57.0107 36.4121L59.882 31.8011L63.7329 35.5866L66.0185 30.2546L66.1625 28.5374L66.3354 26.4026L61.2169 16.9814L44.3825 21.8296L34.8561 26.6873C34.8561 26.6873 25.4642 28.1768 26.4918 38.9263V49.2678L23.3803 57.3797L6.58437 47.6264L4.875 49.3532C7.33342 57.2753 12.1158 63.0628 19.1069 67.6548L20.653 69.002L28.1627 72.465L26.4438 76.0608L31.2069 80.1689L35.6148 84.0778H46.5432L46.5528 82.8444C46.5528 80.6718 46.2839 78.0627 43.1629 77.9298H39.0143L36.2774 74.021C36.2774 74.021 39.2736 67.2847 38.8991 65.0836" fill="white"/>
<path d="M47.4554 84.9893H35.2594L30.5922 80.8527L25.3201 76.2986L26.9334 72.9021L20.0383 69.6763L18.5402 68.367C11.1554 63.4998 6.39218 57.3614 3.99138 49.61L3.82812 49.0882L6.43059 46.4696L22.9001 56.0331L25.5601 49.0882V38.908C24.5422 28.3198 33.2331 26.0712 34.5391 25.7961L44.1135 20.929L61.6681 15.8721L67.2668 26.1851L66.8634 30.5873L64.0497 37.1623L60.0548 33.2439L57.193 37.8264L53.515 34.4203L49.9426 39.8567L46.7448 37.1812L43.9694 41.3368L44.5072 44.8282L47.5514 44.0692L58.6143 46.6878L58.5759 47.4468C58.3742 51.4032 55.7045 52.1432 53.1213 52.3329H53.0733L45.6692 52.0768C45.4964 52.1622 45.3043 52.2855 45.0834 52.4658C44.2671 53.1584 42.8651 55.0369 42.6346 59.7807L40.7908 59.6858C41.1365 52.8263 43.835 50.9003 44.9778 50.388C45.7652 50.0369 46.5335 50.0085 47.0137 50.3026L53.0349 50.5113C55.426 50.3216 56.396 49.7239 56.6649 48.092L47.561 45.9383L42.9899 47.0768L42.0392 40.9099L46.351 34.4583L49.5393 37.1243L53.1789 31.6025L56.8089 34.9706L59.6995 30.3312L63.4063 33.9744L65.0965 30.0181L65.375 26.5741L60.7366 18.0352L44.6993 22.6557L35.0001 27.5608C34.6544 27.6177 26.4724 29.0693 27.4039 38.8226V49.4108L23.8508 58.6801L6.73789 48.7656L5.92162 49.591C8.2744 56.7921 12.6343 62.2949 19.6158 66.8869L19.7118 66.9628L21.1523 68.2247L29.3822 72.0197L27.5672 75.8242L31.8022 79.4865L35.9604 83.1677H45.6212V82.8356C45.6212 79.9608 44.9682 78.9172 43.1148 78.8318H38.5244L35.2209 74.1165L35.4322 73.6516C36.5462 71.1469 38.2363 66.6402 37.9867 65.2266L39.8017 64.923C40.1666 67.0482 38.1115 72.0956 37.324 73.9172L39.4944 77.0197H43.1628C47.465 77.2 47.465 81.2986 47.465 82.8451L47.4554 84.9893Z" fill="black"/>
<path d="M38.6777 65.8435C39.9069 64.278 42.663 59.0124 42.663 59.0124L45.8801 56.2041L45.9665 55.094L46.3698 49.9328L49.9998 46.4698C46.3986 41.0239 40.8096 45.4831 40.8096 45.4831L40.3102 52.5988L38.5624 52.2572L35.2109 53.3958" fill="white"/>
<path d="M39.4746 66.4706L37.8613 65.2277C38.8216 64.0038 40.9919 60 41.741 58.5578L41.8274 58.3871L44.8812 55.7305L45.3614 49.4782L48.6264 46.3662C47.887 45.4933 47.0323 44.981 46.072 44.8292C44.2858 44.5541 42.4996 45.5598 41.7698 46.0341L41.2224 53.814L38.6103 53.3112L35.5181 54.3548L34.8555 52.4478L38.4663 51.2239L39.3498 51.3947L39.8011 44.9715L40.1468 44.6964C40.2717 44.6015 43.1718 42.3245 46.3985 42.8273C48.1751 43.1024 49.6732 44.1461 50.8448 45.9203L51.3057 46.6224L47.3492 50.3985L46.8595 56.6983L43.4695 59.6489C42.9798 60.5882 40.6366 65 39.4746 66.4706Z" fill="black"/>
<path d="M41.9542 32.149L35.3789 33.9678L35.8734 35.7228L42.4487 33.904L41.9542 32.149Z" fill="black"/>
<path d="M41.5771 32.3299L36.75 36.4175L37.95 37.8006L42.777 33.7131L41.5771 32.3299Z" fill="black"/>
<path d="M45.2941 26.897L44.7852 25.1512L54.8493 22.3145L56.9428 23.7471L55.896 25.2461L54.5132 24.2974L45.2941 26.897Z" fill="black"/>
<path d="M63.3589 39.1834L63.1914 40.9785L71.0616 41.6953L71.2291 39.9002L63.3589 39.1834Z" fill="white"/>
<path d="M68.6103 50.635L63.7895 49.06L64.8075 45.5875L59.1992 43.9271L59.8138 41.9062L67.4291 44.1738L66.4112 47.6938L69.273 48.6331L68.6103 50.635Z" fill="white"/>
<path d="M38.8936 65.074C37.0882 54.5902 28.6758 58.167 28.6758 58.167L38.8936 65.074Z" fill="white"/>
<path d="M37.9751 65.2253C37.4469 62.1418 36.2753 60.083 34.4987 59.1248C32.0211 57.787 29.0633 58.992 29.0345 59.0015L28.3047 57.3316C28.4583 57.2652 32.0883 55.7567 35.363 57.5214C37.6678 58.7548 39.1563 61.25 39.7901 64.9217L37.9751 65.2253Z" fill="black"/>
<path d="M20.0734 38.501L23.1464 41.6793L24.2988 45.9012L24.0299 47.5236L19.3147 50.7114L16.7891 42.1916L20.0734 38.501Z" fill="white"/>
<path d="M18.7828 52.1721L15.7578 41.9635L20.0408 37.1533L23.9589 41.214L25.2362 45.8439L24.8712 48.045L18.7828 52.1721ZM17.8129 42.4094L19.8392 49.2499L23.1811 46.9919L23.3539 45.9483L22.3072 42.1438L20.0888 39.8478L17.8129 42.4094Z" fill="black"/>
<path d="M13.5486 33.8152C13.5486 33.8152 12.79 30.7412 11.1862 29.4509C9.43844 28.0468 8.7278 27.876 8.7278 27.876L8.75661 29.8873L8.48772 29.6407C7.30652 28.5686 5.4819 28.597 4.33912 29.6976L5.61635 30.3617C4.23348 31.0638 3.14832 32.2308 2.56252 33.6634L2.25521 34.4129L3.65729 34.7735L2.10156 41.9081L6.49024 36.0258L9.11193 32.6672L13.5486 33.8152Z" fill="white"/>
<path d="M0.292969 45.8631L2.56892 35.4362L1.0036 35.0282L1.70464 33.3205C2.16559 32.2009 2.88583 31.2142 3.81734 30.4552L2.7898 29.9144L3.6925 29.051C4.81607 27.9694 6.4294 27.6753 7.81226 28.1877L7.79306 26.7266L8.93583 26.9922C9.1471 27.0397 9.99219 27.3148 11.7688 28.7474C13.5646 30.1895 14.3616 33.254 14.4481 33.6051L14.813 35.0851L9.47361 33.7094L7.22647 36.5937L0.292969 45.8631ZM3.50043 33.7948L4.73924 34.1174L3.90377 37.9599L5.74758 35.4931L8.75338 31.6411L9.54084 31.8404L7.86028 30.3129C7.45694 29.9429 6.94798 29.7626 6.43901 29.7626C6.4294 29.7626 6.4294 29.7626 6.4198 29.7626L7.60099 30.3793L6.02607 31.1763C4.9121 31.7455 4.019 32.6658 3.50043 33.7948ZM9.69449 31.8783L12.1337 32.514C11.7688 31.6506 11.2502 30.6829 10.5972 30.1611C10.2323 29.867 9.92496 29.6393 9.65607 29.4495L9.69449 31.8783Z" fill="black"/>
<path d="M27.4064 65.568L34.0134 66.9342V66.8773C34.1094 65.1885 33.1011 63.6326 31.5165 62.9969L31.2668 62.8925L31.8815 53.5377L22.1342 50.1602C20.0407 50.4827 18.9171 52.7787 19.9831 54.5909L20.348 55.2265L26.7245 56.4979L27.5408 63.0159L27.4064 65.568Z" fill="white"/>
<path d="M34.8987 67.9779L33.8424 67.8166L26.4575 66.2891L26.6304 63.0349L25.9005 57.2474L19.7641 56.0235L19.1879 55.0368C18.5445 53.9268 18.4869 52.57 19.0534 51.4125C19.62 50.2551 20.7148 49.4486 22.0016 49.2494L22.2321 49.2114L32.8628 52.8926L32.2482 62.2948C33.9864 63.1582 35.062 64.9608 34.9563 66.9058L34.8987 67.9779ZM28.3781 64.8375L32.9781 65.7863C32.7092 64.9134 32.0658 64.1924 31.1823 63.8413L30.3084 63.4998L30.9134 54.1734L22.0592 51.1089C21.4638 51.2607 20.9645 51.6592 20.6956 52.219C20.3883 52.8452 20.4171 53.5473 20.7724 54.145L20.9357 54.4201L27.5619 55.7389L28.4742 62.9874L28.3781 64.8375Z" fill="black"/>
<path d="M21.326 35.4258C22.44 34.6288 22.392 33.6896 22.1327 32.3518L22.1039 32.181L20.4041 33.1013C19.0212 31.3366 16.2843 31.0235 14.527 32.7788C13.2881 34.0216 13.1249 35.9666 14.018 37.4751L14.0276 37.4846C14.9687 39.0596 16.8893 39.885 18.6467 39.3062C19.1941 39.126 19.6647 38.8508 20.0584 38.4998L20.1544 38.5377L20.2312 38.329C20.9995 37.551 21.3836 36.4884 21.326 35.4258Z" fill="white"/>
<path d="M17.5026 40.3974C15.8124 40.3974 14.1511 39.4866 13.2292 37.9401C12.0864 36.0236 12.3553 33.6422 13.863 32.1337C14.8713 31.128 16.187 30.6157 17.5986 30.7011C18.7222 30.7675 19.7689 31.2134 20.5852 31.9534L22.7747 30.777L23.034 32.1811C23.2837 33.5094 23.399 34.7902 22.237 35.8529C22.1889 36.9439 21.7568 37.997 21.0174 38.813L20.6716 39.7333L20.2011 39.5435C19.817 39.8092 19.3848 40.0179 18.9335 40.1697C18.4629 40.3215 17.9828 40.3974 17.5026 40.3974ZM17.3105 32.5227C16.5135 32.5227 15.7644 32.8358 15.1786 33.424C14.2567 34.3443 14.1031 35.8244 14.8137 37.0198C15.5628 38.2817 17.0512 38.8794 18.3573 38.4525C18.7606 38.3196 19.1255 38.1109 19.4328 37.8358L19.5673 37.7029C20.1435 37.1147 20.4508 36.3083 20.4028 35.4828L20.3739 34.9895L20.7869 34.6954C21.1902 34.4107 21.3631 34.1451 21.3631 33.6233L20.1531 34.2779L19.6729 33.6612C19.1543 32.9971 18.3573 32.5796 17.493 32.5322C17.4354 32.5227 17.3778 32.5227 17.3105 32.5227Z" fill="black"/>
<path d="M19.924 32.2823L17.0586 33.9443L17.9921 35.5153L20.8575 33.8533L19.924 32.2823Z" fill="black"/>
<path d="M17.0691 45.7952C18.7663 45.7952 20.1421 44.4359 20.1421 42.7592C20.1421 41.0824 18.7663 39.7231 17.0691 39.7231C15.3719 39.7231 13.9961 41.0824 13.9961 42.7592C13.9961 44.4359 15.3719 45.7952 17.0691 45.7952Z" fill="white"/>
<path d="M17.0711 46.7072C16.13 46.7072 15.2177 46.3752 14.4878 45.768C13.6716 45.0849 13.1818 44.1266 13.0954 43.083C13.0089 42.0299 13.345 41.0147 14.0365 40.2082C14.7279 39.4018 15.6882 38.9179 16.7542 38.8325C18.9533 38.6523 20.8739 40.2746 21.0564 42.4473C21.2293 44.6105 19.5967 46.5175 17.3976 46.6978C17.292 46.7072 17.1767 46.7072 17.0711 46.7072ZM17.0807 40.6352C17.0231 40.6352 16.9654 40.6352 16.9078 40.6447C16.3316 40.6921 15.8131 40.9578 15.4385 41.3847C15.064 41.8211 14.8912 42.3714 14.9392 42.9312C14.9872 43.5004 15.2561 44.0128 15.6882 44.3828C16.1204 44.7528 16.687 44.9236 17.2535 44.8856C18.4347 44.7907 19.3182 43.7661 19.2222 42.5896C19.1262 41.4796 18.185 40.6352 17.0807 40.6352Z" fill="black"/>
<path d="M27.8828 44.2134C30.8598 43.6726 31.8969 43.7864 32.55 45.6366C32.9053 46.6328 32.3099 47.7144 31.3592 47.7713L28.507 47.9611L27.8828 44.2134Z" fill="white"/>
<path d="M27.7347 48.9275L26.832 43.4818L27.7155 43.3205C30.5389 42.7987 32.4691 42.6659 33.4198 45.3318C33.6983 46.1193 33.6023 46.9921 33.1413 47.6657C32.738 48.2634 32.1042 48.6334 31.4032 48.6714L27.7347 48.9275ZM28.9447 44.9618L29.2808 47.0016L31.2975 46.8688C31.4608 46.8593 31.5568 46.7549 31.6144 46.6695C31.7201 46.5177 31.7873 46.2426 31.6816 45.9485C31.3551 45.0282 31.2207 44.6298 28.9447 44.9618Z" fill="black"/>
<path d="M27.3354 56.1728L27.0195 57.9673L31.1824 58.6823L31.4982 56.8878L27.3354 56.1728Z" fill="black"/>
<path d="M17.4159 54.5848L16.4611 42.9455L28.5823 41.9724L29.5371 53.613L23.8058 58.0044L17.4159 54.5848Z" fill="#2C39F2" stroke="black"/>
<path d="M27.036 51.1496C27.1609 51.1401 27.3049 51.1117 27.449 51.0547L27.545 52.4399C27.1993 52.5823 26.7575 52.7056 26.335 52.7435C25.5571 52.8005 24.9425 52.5728 24.5872 52.0415C23.8766 52.6582 23.0219 53.0566 21.8887 53.1325C20.4482 53.2369 19.1518 52.5348 19.0462 51.0927C18.9117 49.2426 20.7075 48.531 22.2344 48.4267C22.8394 48.3792 23.5213 48.4077 24.0686 48.4931L24.0494 48.2369C23.9918 47.5064 23.358 47.051 22.1576 47.1364C21.1013 47.2123 20.1794 47.5538 19.4879 47.8764L19.3535 46.0548C19.9585 45.8081 21.1013 45.4381 22.2921 45.3527C24.5872 45.1914 26.1237 45.9789 26.2966 48.3792L26.4694 50.7037C26.4887 51.0832 26.7575 51.1686 27.036 51.1496ZM21.0052 50.8176C21.0532 51.4153 21.6583 51.7568 22.3977 51.7094C23.0795 51.662 23.7229 51.4343 24.2511 50.9219L24.1551 49.6696C23.7806 49.6126 23.214 49.5557 22.705 49.5937C21.8119 49.6506 20.9476 50.0016 21.0052 50.8176Z" fill="white"/>
</svg>
